<?xml version="1.0" standalone="no"?><!DOCTYPE svg PUBLIC "-//W3C//DTD SVG 1.1//EN" "http://www.w3.org/Graphics/SVG/1.1/DTD/svg11.dtd"><svg t="1648220573276" class="icon" viewBox="0 0 1024 1024" version="1.1" xmlns="http://www.w3.org/2000/svg" p-id="2539" xmlns:xlink="http://www.w3.org/1999/xlink" width="200" height="200"><defs><style type="text/css"></style></defs><path d="M614.2 441.7l-53.7-92.6c29.5-17.1 47.9-48.2 47.9-82.6 0-52.7-43.1-95.5-96.5-95.5s-96.5 42.8-96.5 95.5c0 34.9 19 66.5 49.2 83.3l-52.2 93.5c-63.7-35.5-104.1-102.6-104.1-176.8 0-112 91.2-202.6 203.6-202.6s203.6 90.6 203.6 202.6c0 73-39.1 139.2-101.3 175.2z m-293.9 44.4l-27.6 103.4c-32.9-8.8-68 0.2-92.2 24.5-37.2 37.2-37 98 0.7 135.8 37.7 37.7 98.6 37.9 135.8 0.7 24.7-24.7 33.5-60.4 24.1-93.7l103-29.3c19.9 70.2 1.1 146.2-51.3 198.6-79.2 79.2-207.7 78.7-287.2-0.7-79.3-79.3-79.8-207.9-0.6-287.1 51.4-51.6 125.9-70.7 195.3-52.2z m334.1 42l53.6 92.7c-29.6 17.1-48 48.2-48 82.5 0 52.7 43.1 95.5 96.5 95.5S853 756 853 703.3c0-34.9-19-66.5-49.2-83.3l52.2-93.5c63.9 35.5 104.2 102.6 104.2 176.8 0 112-91.2 202.6-203.6 202.6S553 815.3 553 703.3c0-72.9 39.2-139.2 101.4-175.2z" fill="#418DE3" p-id="2540"></path></svg>