<?xml version="1.0" standalone="no"?><!DOCTYPE svg PUBLIC "-//W3C//DTD SVG 1.1//EN" "http://www.w3.org/Graphics/SVG/1.1/DTD/svg11.dtd"><svg t="1648220969321" class="icon" viewBox="0 0 1024 1024" version="1.1" xmlns="http://www.w3.org/2000/svg" p-id="1673" xmlns:xlink="http://www.w3.org/1999/xlink" width="200" height="200"><defs><style type="text/css"></style></defs><path d="M512 1024C229.376 1024 0 794.624 0 512S229.376 0 512 0s512 229.376 512 512-229.376 512-512 512z m0-68.096c245.248 0 443.904-198.656 443.904-443.904S757.248 68.096 512 68.096 68.096 266.752 68.096 512c0 245.248 198.656 443.904 443.904 443.904z m169.984-323.072c13.824 13.824 13.824 35.84 0 49.152s-35.84 13.824-49.152 0L518.656 568.32l-113.664 113.664c-13.824 13.824-35.84 13.824-49.152 0-13.824-13.824-13.824-35.84 0-49.152l113.664-113.664-113.664-114.176c-13.824-13.824-13.824-35.84 0-49.152 13.824-13.824 35.84-13.824 49.152 0l113.664 113.664 113.664-113.664c13.824-13.824 35.84-13.824 49.152 0 13.824 13.824 13.824 35.84 0 49.152L568.32 518.656l113.664 114.176z" p-id="1674"></path></svg>