<?xml version="1.0" standalone="no"?><!DOCTYPE svg PUBLIC "-//W3C//DTD SVG 1.1//EN" "http://www.w3.org/Graphics/SVG/1.1/DTD/svg11.dtd"><svg t="1648220680634" class="icon" viewBox="0 0 1024 1024" version="1.1" xmlns="http://www.w3.org/2000/svg" p-id="16957" xmlns:xlink="http://www.w3.org/1999/xlink" width="200" height="200"><defs><style type="text/css"></style></defs><path d="M760.6272 909.312H263.5776c-5.3248 0-10.24-1.8432-12.9024-6.3488L2.048 475.9552c-2.6624-4.7104-2.6624-10.0352 0-14.7456L250.6752 32.9728c2.6624-4.5056 7.5776-8.3968 12.9024-8.3968h497.0496c5.3248 0 10.24 3.8912 12.9024 8.3968l248.4224 428.032c2.6624 4.7104 2.6624 10.6496 0 15.1552L773.5296 902.7584c-2.6624 4.7104-7.5776 6.5536-12.9024 6.5536z m-488.448-28.672h479.8464l239.8208-413.696L752.0256 53.248H272.1792L32.1536 466.944l240.0256 413.696z" fill="#333333" p-id="16958"></path><path d="M330.5472 705.9456c-41.7792 0-77.2096-31.5392-82.3296-71.4752-26.624-10.24-51.6096-36.2496-51.6096-64.7168v-79.872c0-37.0688 40.7552-57.9584 76.8-57.9584H368.64v-101.5808c0-37.2736 34.4064-56.1152 68.8128-56.1152h108.9536c13.7216 0 24.7808 10.8544 24.7808 24.576s-11.0592 24.576-24.7808 24.576h-108.9536c-10.0352 0-19.6608 2.048-19.6608 6.9632v123.0848c0 7.5776-3.6864 14.5408-9.6256 19.456-4.7104 3.8912-10.8544 6.5536-16.9984 6.144-3.072 1.024-6.3488 2.048-9.8304 2.048h-108.1344c-12.9024 0-23.552 5.7344-23.552 8.8064v79.872c0 5.9392 13.1072 19.8656 23.552 19.8656h1.2288c13.7216 0 24.7808 10.8544 24.7808 24.576 0 2.6624-0.4096 5.12-1.2288 7.5776v2.048c0 17.6128 14.1312 31.3344 32.3584 31.3344 18.432 0 32.3584-13.312 32.3584-30.72v-2.6624c-0.8192-2.4576-1.2288-4.7104-1.2288-7.3728 0-13.7216 11.0592-24.576 24.7808-24.576h60.416c13.7216 0 24.7808 11.8784 24.7808 25.6S460.8 641.024 447.0784 641.024h-35.6352c-6.7584 38.912-39.936 64.9216-80.896 64.9216z m50.176-67.7888c1.8432 0.4096 3.8912 0.6144 5.9392 0.6144-2.048 0.2048-4.096-0.2048-5.9392-0.6144z m-99.1232-0.2048c-2.2528 0.6144-4.5056 1.024-6.9632 1.024 2.4576 0 4.9152-0.4096 6.9632-1.024z" fill="#333333" p-id="16959"></path><path d="M323.584 464.896c-13.7216 0-24.576-11.0592-24.576-24.7808v-88.2688c0-1.2288-0.6144-1.8432-0.8192-2.4576-3.2768-1.6384-13.312-1.6384-20.48 0-13.312 3.072-26.8288-5.3248-29.9008-18.6368s4.9152-26.624 18.2272-29.9008c6.5536-1.6384 40.1408-8.3968 63.0784 9.6256 8.6016 6.7584 18.8416 19.2512 18.8416 41.1648v88.2688c0.2048 13.9264-10.6496 24.9856-24.3712 24.9856zM307.8144 540.672h-69.632c-13.7216 0-24.7808-10.8544-24.7808-24.576s11.0592-24.576 24.7808-24.576h69.632c13.7216 0 24.7808 10.8544 24.7808 24.576s-11.0592 24.576-24.7808 24.576zM638.7712 479.4368c-67.9936 0-123.2896-55.296-123.2896-123.2896s55.296-123.0848 123.2896-123.0848 123.2896 55.296 123.2896 123.0848-55.296 123.2896-123.2896 123.2896z m0-196.608c-40.5504 0-73.5232 32.9728-73.5232 73.5232s32.9728 73.5232 73.5232 73.5232 73.5232-32.9728 73.5232-73.5232-32.9728-73.5232-73.5232-73.5232z" fill="#333333" p-id="16960"></path><path d="M800.3584 682.5984c-13.7216 0-24.7808-11.0592-24.7808-24.7808 0-107.7248-52.4288-174.8992-136.6016-174.8992-82.944 0-136.6016 68.608-136.6016 174.8992 0 13.7216-11.0592 24.7808-24.7808 24.7808-13.7216 0-24.7808-11.0592-24.7808-24.7808 0-155.0336 93.5936-224.4608 186.368-224.4608 113.2544 0 186.368 88.064 186.368 224.4608-0.4096 13.7216-11.4688 24.7808-25.1904 24.7808z" fill="#333333" p-id="16961"></path></svg>