<?xml version="1.0" standalone="no"?><!DOCTYPE svg PUBLIC "-//W3C//DTD SVG 1.1//EN" "http://www.w3.org/Graphics/SVG/1.1/DTD/svg11.dtd"><svg t="1648216859437" class="icon" viewBox="0 0 1112 1024" version="1.1" xmlns="http://www.w3.org/2000/svg" p-id="14346" xmlns:xlink="http://www.w3.org/1999/xlink" width="217.1875" height="200"><defs><style type="text/css"></style></defs><path d="M143.593004 0h825.668467A143.593004 143.593004 0 0 1 1112.854474 143.593004v582.718424a143.593004 143.593004 0 0 1-143.593003 143.593004H712.922398l-156.495161 154.060791-156.07784-154.060791H143.593004A143.593004 143.593004 0 0 1 0 726.276651V143.593004A143.593004 143.593004 0 0 1 143.593004 0z m31.299032 76.508745a92.749465 92.749465 0 0 0-92.610358 92.749465v532.326983a92.749465 92.749465 0 0 0 92.749465 92.749465h267.780608L556.427237 910.384513l116.74539-116.049855h265.033248a92.749465 92.749465 0 0 0 92.749465-92.749465V169.25821A92.749465 92.749465 0 0 0 938.205875 76.508745H174.996366z" p-id="14347"></path><path d="M259.677636 495.637562A74.178706 74.178706 0 1 1 333.856342 421.458855a74.178706 74.178706 0 0 1-74.178706 74.178707z m296.749601 0a74.178706 74.178706 0 1 1 74.178706-74.178707A74.178706 74.178706 0 0 1 556.427237 495.637562z m296.749601 0a74.178706 74.178706 0 1 1 74.178706-74.178707 74.178706 74.178706 0 0 1-74.178706 74.178707z" p-id="14348"></path></svg>