<?xml version="1.0" standalone="no"?><!DOCTYPE svg PUBLIC "-//W3C//DTD SVG 1.1//EN" "http://www.w3.org/Graphics/SVG/1.1/DTD/svg11.dtd"><svg t="1648216811719" class="icon" viewBox="0 0 1024 1024" version="1.1" xmlns="http://www.w3.org/2000/svg" p-id="14204" xmlns:xlink="http://www.w3.org/1999/xlink" width="200" height="200"><defs><style type="text/css"></style></defs><path d="M938.646947 0H84.681497C62.232285 0 40.678484 9.401807 24.816933 26.222726A92.163287 92.163287 0 0 0 0.00128 89.541015v711.531279c0 23.728369 8.954101 46.49737 24.815653 63.318289 15.861551 16.756961 37.415353 26.222726 59.864564 26.222725h255.191892c2.302483 3.00602 4.732882 5.884124 7.291197 8.69827l80.075251 84.61626c11.768248 12.471784 25.775021 22.385254 41.188866 29.164787a120.88037 120.88037 0 0 0 97.152002 0c15.349888-6.779534 29.420619-16.629046 41.188866-29.164787l80.075251-84.61626c2.558315-2.814146 4.924756-5.69225 7.227239-8.69827h244.574886c22.449212 0 44.003013-9.465764 59.864564-26.222725 15.861551-16.820919 24.815653-39.58992 24.815653-63.318289V89.541015c0-23.792327-8.954101-46.561328-24.815653-63.318289a82.377734 82.377734 0 0 0-59.864564-26.222726z m12.151995 801.072294c0 3.389767-1.279157 6.651618-3.581641 9.018059a11.768248 11.768248 0 0 1-8.570354 3.773514h-284.484596l-98.68699 115.635825a54.044398 54.044398 0 0 1-38.37472 16.181341 54.044398 54.044398 0 0 1-38.374721-16.181341L379.911014 813.863867H84.681497a11.768248 11.768248 0 0 1-8.570354-3.773514 13.175321 13.175321 0 0 1-3.517683-9.018059V89.541015c0-3.389767 1.279157-6.651618 3.517683-9.082017a11.768248 11.768248 0 0 1 8.570354-3.709557h853.96545c3.197893 0 6.267871 1.279157 8.570354 3.709557a13.175321 13.175321 0 0 1 3.517683 9.082017v711.531279z" p-id="14205"></path><path d="M938.646947 0H84.681497C62.232285 0 40.678484 9.401807 24.816933 26.222726A92.163287 92.163287 0 0 0 0.00128 89.541015v711.531279c0 23.728369 8.954101 46.49737 24.815653 63.318289 15.861551 16.756961 37.415353 26.222726 59.864564 26.222725h255.191892c2.302483 3.00602 4.732882 5.884124 7.291197 8.69827l80.075251 84.61626c11.768248 12.471784 25.775021 22.385254 41.188866 29.164787a120.88037 120.88037 0 0 0 97.152002 0c15.349888-6.779534 29.420619-16.629046 41.188866-29.164787l80.075251-84.61626c2.558315-2.814146 4.924756-5.69225 7.227239-8.69827h244.574886c22.449212 0 44.003013-9.465764 59.864564-26.222725 15.861551-16.820919 24.815653-39.58992 24.815653-63.318289V89.541015c0-23.792327-8.954101-46.561328-24.815653-63.318289a82.377734 82.377734 0 0 0-59.864564-26.222726z m12.151995 801.072294c0 3.389767-1.279157 6.651618-3.581641 9.018059a11.768248 11.768248 0 0 1-8.570354 3.773514h-284.484596l-98.68699 115.635825a54.044398 54.044398 0 0 1-38.37472 16.181341 54.044398 54.044398 0 0 1-38.374721-16.181341L379.911014 813.863867H84.681497a11.768248 11.768248 0 0 1-8.570354-3.773514 13.175321 13.175321 0 0 1-3.517683-9.018059V89.541015c0-3.389767 1.279157-6.651618 3.517683-9.082017a11.768248 11.768248 0 0 1 8.570354-3.709557h853.96545c3.197893 0 6.267871 1.279157 8.570354 3.709557a13.175321 13.175321 0 0 1 3.517683 9.082017v711.531279z" p-id="14206"></path><path d="M266.577673 409.714101h234.533501a31.978934 31.978934 0 0 0 0-63.957868H266.577673a31.978934 31.978934 0 1 0 0 63.957868z m490.364972 127.915735H266.577673a31.978934 31.978934 0 1 0 0 63.957868h490.364972a31.978934 31.978934 0 0 0 0-63.957868z" p-id="14207"></path></svg>