<?xml version="1.0" standalone="no"?><!DOCTYPE svg PUBLIC "-//W3C//DTD SVG 1.1//EN" "http://www.w3.org/Graphics/SVG/1.1/DTD/svg11.dtd"><svg t="1648216910321" class="icon" viewBox="0 0 1024 1024" version="1.1" xmlns="http://www.w3.org/2000/svg" p-id="16647" xmlns:xlink="http://www.w3.org/1999/xlink" width="200" height="200"><defs><style type="text/css"></style></defs><path d="M885.376 256.896c3.456-0.64 7.04-0.896 10.624-0.896h64a64 64 0 1 1 0 128h-64v64h64a64 64 0 1 1 0 128h-64v64h64a64 64 0 1 1 0 128h-64c-3.648 0-7.168-0.32-10.624-0.896a192.512 192.512 0 0 1-118.272 118.272c0.64 3.456 0.896 7.04 0.896 10.624v64a64 64 0 1 1-128 0v-64H576v64a64 64 0 1 1-128 0v-64H384v64a64 64 0 1 1-128 0v-64c0-3.648 0.32-7.168 0.896-10.624a192.512 192.512 0 0 1-118.272-118.272c-3.456 0.64-7.04 0.896-10.624 0.896H64a64 64 0 1 1 0-128h64V576H64a64 64 0 1 1 0-128h64V384H64a64 64 0 1 1 0-128h64c3.648 0 7.168 0.32 10.624 0.896 19.2-55.296 62.976-99.072 118.272-118.272A64.448 64.448 0 0 1 256 128V64a64 64 0 1 1 128 0v64h64V64a64 64 0 1 1 128 0v64h64V64a64 64 0 1 1 128 0v64c0 3.648-0.32 7.168-0.896 10.624 55.296 19.2 99.072 62.976 118.272 118.272zM320 256a64 64 0 0 0-64 64v384a64 64 0 0 0 64 64h384a64 64 0 0 0 64-64V320a64 64 0 0 0-64-64H320z m128 128h128a64 64 0 0 1 64 64v128a64 64 0 0 1-64 64H448a64 64 0 0 1-64-64V448a64 64 0 0 1 64-64z" p-id="16648"></path></svg>