<?xml version="1.0" standalone="no"?><!DOCTYPE svg PUBLIC "-//W3C//DTD SVG 1.1//EN" "http://www.w3.org/Graphics/SVG/1.1/DTD/svg11.dtd"><svg t="1648216265635" class="icon" viewBox="0 0 1024 1024" version="1.1" xmlns="http://www.w3.org/2000/svg" p-id="6142" width="200" height="200" xmlns:xlink="http://www.w3.org/1999/xlink"><defs><style type="text/css"></style></defs><path d="M512.8 162.2c-83 0-161 32.3-219.7 91-58.7 58.7-91 136.7-91 219.7 0 59.6 16.9 117.5 48.9 167.5l132 206.8 0.3-0.2v67.4c0 24.8 20.3 45.1 45.1 45.1h168.9c24.8 0 45.1-20.3 45.1-45.1v-69.8c0-1.8-0.1-3.6-0.3-5.4L775 641l0.5-0.7c31.4-49.6 48-107.5 48-167.4 0-83-32.3-161-91-219.7-58.7-58.7-136.7-91-219.7-91z m65.5 733.4h-131v-31.9h131v31.9z m143.3-289.9l-130.1 194h-47.4V610.9H566c17.7 0 32-14.3 32-32s-14.3-32-32-32H460.1c-17.7 0-32 14.3-32 32s14.3 32 32 32h20v188.8h-51.5L304.9 605.9c-25.4-39.6-38.9-85.6-38.9-133 0-136 110.7-246.7 246.7-246.7s246.7 110.7 246.7 246.7c0.1 46.9-13.4 94.1-37.8 132.8zM512.1 142c17.7 0 32-14.3 32-32V97c0-17.7-14.3-32-32-32s-32 14.3-32 32v13c0 17.6 14.3 32 32 32zM912.8 464.9l-13 0.1c-17.7 0.2-31.9 14.6-31.7 32.3 0.2 17.6 14.5 31.7 32 31.7h0.3l13-0.1c17.7-0.2 31.9-14.6 31.7-32.3-0.2-17.7-14.7-31.9-32.3-31.7zM781.3 182.6l-9.1 9.3c-12.4 12.6-12.2 32.9 0.4 45.3 6.2 6.1 14.3 9.2 22.4 9.2 8.3 0 16.6-3.2 22.8-9.6l9.1-9.3c12.4-12.6 12.2-32.9-0.4-45.3-12.6-12.4-32.8-12.2-45.2 0.4zM124.9 464.3h-0.3l-13 0.1c-17.6 0.1-31.8 14.6-31.7 32.3 0.2 17.6 14.5 31.7 32 31.7h0.3l13-0.1c17.7-0.2 31.9-14.6 31.7-32.3-0.1-17.6-14.4-31.7-32-31.7zM231.5 246.6c8.3 0 16.6-3.2 22.8-9.6 12.4-12.6 12.2-32.9-0.4-45.3l-9.3-9.1c-12.6-12.4-32.9-12.2-45.3 0.4-12.4 12.6-12.2 32.9 0.4 45.3l9.3 9.1c6.3 6.2 14.4 9.2 22.5 9.2z" p-id="6143" fill="#515151"></path></svg>