<?xml version="1.0" standalone="no"?><!DOCTYPE svg PUBLIC "-//W3C//DTD SVG 1.1//EN" "http://www.w3.org/Graphics/SVG/1.1/DTD/svg11.dtd"><svg t="1648220727712" class="icon" viewBox="0 0 1024 1024" version="1.1" xmlns="http://www.w3.org/2000/svg" p-id="19296" xmlns:xlink="http://www.w3.org/1999/xlink" width="200" height="200"><defs><style type="text/css"></style></defs><path d="M512 0C230.4 0 0 230.4 0 512s230.4 512 512 512 512-230.4 512-512S793.6 0 512 0z m0 962.56c-250.88 0-450.56-199.68-450.56-450.56S266.24 61.44 512 61.44c250.88 0 450.56 199.68 450.56 450.56s-199.68 450.56-450.56 450.56z m293.632-625.92l-2.048-5.632h-1.792c-0.768-1.024-1.536-1.792-2.56-2.816-0.768-0.768-1.536-1.28-2.304-1.792-0.768-0.512-1.536-1.28-2.304-1.792-0.256-0.256-0.768-0.512-1.024-0.512l-0.512-0.256-269.056-127.744c-7.68-3.584-16.384-3.584-24.064 0l-268.8 127.488-2.048 1.024c-0.768 0.512-1.536 1.024-2.56 1.792-0.768 0.512-1.536 1.024-2.048 1.792-1.28 1.28-2.304 2.304-2.816 3.072-0.768 0.768-1.28 1.792-2.048 2.816-0.768 1.28-1.28 2.56-1.792 3.84-0.512 1.024-0.768 1.792-0.768 2.56-0.768 2.304-1.024 4.864-1.024 7.168V675.84c0 10.496 6.144 20.224 15.616 24.576l268.288 127.232c0.768 0.256 1.536 0.512 2.56 1.024l2.304 0.768c3.328 0.768 6.144 1.024 9.472 0.768l0.256 0.512 3.84-1.28h0.512c0.768-0.256 1.28-0.512 2.048-0.768h0.256c0.768-0.256 1.536-0.512 2.816-1.024l3.84-1.536v-0.256l264.448-125.44c9.472-4.608 15.616-14.08 15.616-24.576V347.904c0-2.56-0.256-4.864-1.024-7.424l-1.28-3.84zM512 251.136l65.28 30.976-204.032 96.768-65.28-30.976L512 251.136z m-27.648 508.16l-212.48-100.864V391.424l75.52 35.84v59.648c0.256 7.424 3.328 14.08 8.704 19.2 5.376 4.864 12.544 7.68 19.968 7.424 14.592-0.512 26.624-12.032 26.88-26.88v-33.024l81.408 38.656v267.008zM512 444.672l-74.752-35.584 204.032-96.768 75.008 35.584-204.288 96.768z m240.384 213.76l-212.48 100.864V492.288l212.48-100.864v267.008z" p-id="19297"></path></svg>