<?xml version="1.0" standalone="no"?><!DOCTYPE svg PUBLIC "-//W3C//DTD SVG 1.1//EN" "http://www.w3.org/Graphics/SVG/1.1/DTD/svg11.dtd"><svg t="1648216530318" class="icon" viewBox="0 0 1024 1024" version="1.1" xmlns="http://www.w3.org/2000/svg" p-id="8458" xmlns:xlink="http://www.w3.org/1999/xlink" width="200" height="200"><defs><style type="text/css"></style></defs><path d="M32 704a32 32 0 0 1 31.488 26.24L64 736V960h224a32 32 0 0 1 5.76 63.488L288 1024h-256a32 32 0 0 1-31.488-26.24L0 992v-256a32 32 0 0 1 32-32z m960 0a32 32 0 0 1 32 32v256a32 32 0 0 1-32 32h-256a32 32 0 1 1 0-64H960v-224a32 32 0 0 1 32-32z m-314.176-404.224a256 256 0 0 1 21.12 338.112 9.984 9.984 0 0 1 1.536 1.28l135.68 135.808a32 32 0 0 1-45.184 45.248l-135.808-135.744-1.216-1.536a256 256 0 1 1 23.872-383.168z m-316.8 45.248a192 192 0 1 0 271.552 271.552A192 192 0 0 0 360.96 344.96zM288 0a32 32 0 0 1 0 64H64v224a32 32 0 0 1-64 0v-256A32 32 0 0 1 32 0h256z m704 0a32 32 0 0 1 31.488 26.24L1024 32v256a32 32 0 0 1-63.488 5.76L960 288V64h-224a32 32 0 0 1-5.76-63.488L736 0h256z" p-id="8459" fill="#515151"></path></svg>